<svg width="470" height="470" viewBox="0 0 470 470" fill="none" xmlns="http://www.w3.org/2000/svg">
<rect width="469.245" height="469.245" rx="24" fill="white"/>
<path d="M193.541 234.52V164.309C193.541 163.509 194.204 162.861 195.022 162.861H271.307C277.819 162.861 283.098 168.021 283.098 174.385V260.737C283.098 267.102 277.819 272.26 271.307 272.26H195.022C194.204 272.26 193.541 271.613 193.541 270.813V257.903C193.541 257.104 194.204 256.456 195.022 256.456H259.522C262.764 256.456 265.392 253.887 265.392 250.719V185.143C265.392 181.976 262.764 179.407 259.522 179.407H213.241C212.423 179.407 211.76 180.055 211.76 180.855V228.247C211.76 228.83 211.403 229.355 210.853 229.581L195.596 235.854C194.62 236.256 193.541 235.555 193.541 234.52Z" fill="#2723FF"/>
<path fill-rule="evenodd" clip-rule="evenodd" d="M139.179 118C138.354 118 137.686 118.653 137.686 119.459V320.185C137.686 320.991 138.354 321.644 139.179 321.644H237.801C237.996 321.644 238.189 321.682 238.37 321.754L309.084 350.255C310.066 350.651 311.145 349.945 311.145 348.906V323.103C311.145 322.297 311.814 321.644 312.638 321.644H332.252C333.077 321.644 333.745 320.991 333.745 320.185V119.459C333.745 118.653 333.077 118 332.252 118H139.179ZM241.859 304.545C241.678 304.472 241.485 304.435 241.29 304.435H156.788C155.964 304.435 155.295 303.781 155.295 302.976V136.668C155.295 135.862 155.964 135.21 156.788 135.21H314.642C315.466 135.21 316.135 135.862 316.135 136.668V302.976C316.135 303.781 315.466 304.435 314.642 304.435H295.028C294.203 304.435 293.535 305.088 293.535 305.893V323.193C293.535 324.232 292.456 324.938 291.473 324.542L241.859 304.545Z" fill="#2723FF"/>
</svg>
