<svg width="197" height="233" viewBox="0 0 197 233" fill="none" xmlns="http://www.w3.org/2000/svg">
<path d="M55.8552 116.52V46.3087C55.8552 45.5092 56.5182 44.8615 57.3358 44.8615H133.621C140.133 44.8615 145.412 50.0207 145.412 56.3847V142.737C145.412 149.102 140.133 154.26 133.621 154.26H57.3358C56.5182 154.26 55.8552 153.613 55.8552 152.813V139.903C55.8552 139.104 56.5182 138.456 57.3358 138.456H121.836C125.078 138.456 127.706 135.887 127.706 132.719V67.1432C127.706 63.9758 125.078 61.4074 121.836 61.4074H75.5556C74.7372 61.4074 74.0742 62.0551 74.0742 62.8546V110.247C74.0742 110.83 73.7169 111.355 73.1673 111.581L57.9102 117.854C56.9343 118.256 55.8552 117.555 55.8552 116.52Z" fill="#1F1F1F"/>
<path fill-rule="evenodd" clip-rule="evenodd" d="M1.49296 0C0.668059 0 0 0.652798 0 1.45882V202.185C0 202.991 0.668059 203.644 1.49296 203.644H100.115C100.31 203.644 100.504 203.682 100.684 203.754L171.398 232.255C172.38 232.651 173.459 231.945 173.459 230.906V205.103C173.459 204.297 174.128 203.644 174.952 203.644H194.566C195.391 203.644 196.059 202.991 196.059 202.185V1.45882C196.059 0.652798 195.391 0 194.566 0H1.49296ZM104.173 186.545C103.993 186.472 103.799 186.435 103.604 186.435H19.1027C18.2785 186.435 17.6098 185.781 17.6098 184.976V18.6678C17.6098 17.8625 18.2785 17.2097 19.1027 17.2097H176.957C177.781 17.2097 178.45 17.8625 178.45 18.6678V184.976C178.45 185.781 177.781 186.435 176.957 186.435H157.342C156.518 186.435 155.85 187.088 155.85 187.893V205.193C155.85 206.232 154.771 206.938 153.787 206.542L104.173 186.545Z" fill="#1F1F1F"/>
</svg>
