<svg xmlns="http://www.w3.org/2000/svg" version="1.1" xmlns:xlink="http://www.w3.org/1999/xlink" xmlns:svgjs="http://svgjs.com/svgjs" width="81" height="80"><svg width="81" height="80" viewBox="0 0 81 80" fill="none" xmlns="http://www.w3.org/2000/svg">
<rect x="0.725586" y="0.00585938" width="79.7658" height="79.7658" fill="white"></rect>
<path d="M30.7413 41.96V25.6912C30.7413 25.5059 30.8964 25.3558 31.0878 25.3558H48.9335C50.457 25.3558 51.692 26.5512 51.692 28.0259V48.0347C51.692 49.5094 50.457 50.7048 48.9335 50.7048H31.0878C30.8964 50.7048 30.7413 50.5547 30.7413 50.3694V47.3781C30.7413 47.1928 30.8964 47.0427 31.0878 47.0427H46.1767C46.9351 47.0427 47.5499 46.4476 47.5499 45.7135V30.5188C47.5499 29.7847 46.9351 29.1896 46.1767 29.1896H35.3499C35.1586 29.1896 35.0034 29.3398 35.0034 29.525V40.5064C35.0034 40.6414 34.9199 40.7632 34.7913 40.8155L31.2221 42.2691C30.9938 42.3621 30.7413 42.1998 30.7413 41.96Z" fill="#2723FF"></path>
<path fill-rule="evenodd" clip-rule="evenodd" d="M18.024 14.9609C17.8311 14.9609 17.6748 15.1123 17.6748 15.2989V61.8095C17.6748 61.9962 17.8311 62.1475 18.024 62.1475H41.0953C41.141 62.1475 41.1862 62.1562 41.2285 62.1731L57.771 68.777C58.0008 68.8688 58.2533 68.7052 58.2533 68.4645V62.4855C58.2533 62.2989 58.4096 62.1475 58.6025 62.1475H63.191C63.3838 62.1475 63.5402 61.9962 63.5402 61.8095V15.2989C63.5402 15.1123 63.3838 14.9609 63.191 14.9609H18.024ZM42.0446 58.1855C42.0024 58.1686 41.9572 58.1599 41.9115 58.1599H22.1436C21.9508 58.1599 21.7944 58.0086 21.7944 57.8219V19.2865C21.7944 19.0999 21.9508 18.9485 22.1436 18.9485H59.0713C59.2642 18.9485 59.4205 19.0999 59.4205 19.2865V57.8219C59.4205 58.0086 59.2642 58.1599 59.0713 58.1599H54.4828C54.29 58.1599 54.1336 58.3113 54.1336 58.4979V62.5065C54.1336 62.7472 53.8812 62.9107 53.6513 62.819L42.0446 58.1855Z" fill="#2723FF"></path>
</svg><style>@media (prefers-color-scheme: light) { :root { filter: none; } }
@media (prefers-color-scheme: dark) { :root { filter: contrast(0.8333333333333334) brightness(1.7); } }
</style></svg>