<svg width="595" height="141" viewBox="0 0 595 141" fill="none" xmlns="http://www.w3.org/2000/svg">
<path d="M579.792 37.1103H593.381L562.114 72.9036L594.839 110.158H581.546L554.372 79.7699L545.899 89.7042V110.158H535.086V7.8916H545.899V76.9944L579.792 37.1103Z" fill="#2723FF"/>
<path d="M508.979 7.8916H519.642V110.158H508.979V7.8916Z" fill="#2723FF"/>
<path d="M493.394 89.2622C493.394 98.1254 494.077 105.089 495.443 110.154H484.485C483.511 106.258 482.925 101.826 482.731 96.8591C480.004 101.339 476.351 104.943 471.773 107.67C467.296 110.397 462.229 111.761 456.58 111.761C449.57 111.761 443.771 109.715 439.197 105.625C434.716 101.534 432.474 96.3233 432.474 89.9928C432.474 84.0514 434.324 79.3279 438.025 75.8214C441.727 72.3154 446.891 70.3674 453.513 69.9779L473.967 68.5167C477.082 68.322 479.272 67.6888 480.541 66.6177C481.903 65.4487 482.586 63.647 482.586 61.2121V60.9199C482.586 56.3423 480.784 52.5441 477.179 49.5245C473.575 46.408 469.195 44.8495 464.031 44.8495C452.147 44.8495 445.573 49.9629 444.309 60.1894H433.06C433.549 52.6899 436.567 46.7001 442.119 42.2198C447.768 37.7395 455.02 35.4994 463.886 35.4994C469.534 35.4994 474.549 36.6684 478.933 39.0059C483.414 41.246 486.922 44.3626 489.451 48.3559C492.081 52.2515 493.394 56.6833 493.394 61.6505V89.2622ZM443.432 89.4081C443.432 93.3041 444.895 96.4206 447.816 98.7582C450.834 100.998 454.826 102.118 459.797 102.118C464.176 102.118 468.072 101.096 471.482 99.0503C474.892 97.0054 477.571 94.2294 479.519 90.7229C481.564 87.2169 482.586 83.2235 482.586 78.7432V76.552L457.166 78.1589C448.01 78.841 443.432 82.5907 443.432 89.4081Z" fill="#2723FF"/>
<path d="M443.643 15.198V25.4245H415.157V110.159H404.344V25.4245H375.858V15.198H443.643Z" fill="#2723FF"/>
<path d="M311.428 37.109H323.262L346.344 98.0303L368.843 37.109H380.823L352.188 110.156H340.062L311.428 37.109Z" fill="#2723FF"/>
<path d="M243.579 73.3381C243.579 61.7479 246.647 52.5931 252.782 45.8727C258.919 39.0549 267.197 35.6458 277.618 35.6458C284.241 35.6458 290.085 37.2042 295.15 40.3208C300.312 43.4378 304.354 47.7228 307.275 53.1773C310.198 58.6314 311.658 64.8649 311.658 71.8774V76.4062H254.828C255.217 84.6847 257.409 90.9671 261.402 95.2522C265.493 99.5377 271.19 101.68 278.495 101.68C284.436 101.68 289.16 100.366 292.666 97.736C296.27 95.1063 298.51 91.5514 299.386 87.0711H310.782C309.223 94.8627 305.717 100.853 300.263 105.041C294.906 109.229 287.65 111.323 278.495 111.323C271.385 111.323 265.201 109.813 259.941 106.794C254.682 103.677 250.64 99.2945 247.815 93.6452C244.991 87.899 243.579 81.1297 243.579 73.3381ZM277.618 44.85C263.983 44.85 256.435 52.4468 254.974 67.6404H300.117C299.533 60.7252 297.195 55.2227 293.105 51.132C289.111 46.9438 283.949 44.85 277.618 44.85Z" fill="#2723FF"/>
<path d="M196.962 15.198C205.241 15.198 212.448 17.2434 218.584 21.3341C224.817 25.4245 229.638 31.1711 233.047 38.5732C236.456 45.9752 238.16 54.5947 238.16 64.4317C238.16 73.587 236.553 81.6222 233.339 88.5374C230.223 95.3552 225.791 100.663 220.045 104.462C214.298 108.26 207.578 110.159 199.884 110.159H161.607V15.198H196.962ZM172.418 25.1323V100.225H198.423C207.481 100.225 214.493 97.108 219.46 90.8749C224.525 84.6414 227.057 75.8271 227.057 64.4317C227.057 51.9651 224.281 42.3229 218.73 35.5051C213.276 28.5899 205.533 25.1323 195.501 25.1323H172.418Z" fill="#2723FF"/>
<path d="M33.8929 70.7044V28.1C33.8929 27.6148 34.2952 27.2218 34.7914 27.2218H81.0812C85.0328 27.2218 88.2361 30.3524 88.2361 34.2141V86.6128C88.2361 90.4748 85.0328 93.605 81.0812 93.605H34.7914C34.2952 93.605 33.8929 93.212 33.8929 92.7269V84.893C33.8929 84.4083 34.2952 84.0148 34.7914 84.0148H73.9303C75.8973 84.0148 77.4919 82.4563 77.4919 80.5339V40.7424C77.4919 38.8204 75.8973 37.2619 73.9303 37.2619H45.8471C45.3505 37.2619 44.9482 37.6549 44.9482 38.14V66.8979C44.9482 67.2513 44.7314 67.5703 44.3979 67.7073L35.1399 71.5139C34.5477 71.7575 33.8929 71.3323 33.8929 70.7044Z" fill="#2723FF"/>
<path fill-rule="evenodd" clip-rule="evenodd" d="M0.905928 0C0.405378 0 0 0.396118 0 0.885212V122.686C0 123.175 0.405378 123.571 0.905928 123.571H60.7498C60.8684 123.571 60.9856 123.594 61.0953 123.638L104.004 140.932C104.6 141.173 105.255 140.744 105.255 140.114V124.456C105.255 123.968 105.661 123.571 106.161 123.571H118.063C118.563 123.571 118.969 123.175 118.969 122.686V0.885212C118.969 0.396118 118.563 0 118.063 0H0.905928ZM63.2121 113.195C63.1028 113.151 62.9851 113.129 62.867 113.129H11.5915C11.0914 113.129 10.6856 112.732 10.6856 112.243V11.3276C10.6856 10.8389 11.0914 10.4428 11.5915 10.4428H107.377C107.877 10.4428 108.283 10.8389 108.283 11.3276V112.243C108.283 112.732 107.877 113.129 107.377 113.129H95.475C94.9749 113.129 94.5696 113.525 94.5696 114.013V124.511C94.5696 125.141 93.9148 125.57 93.3182 125.33L63.2121 113.195Z" fill="#2723FF"/>
</svg>
