<svg width="595" height="142" viewBox="0 0 595 142" fill="none" xmlns="http://www.w3.org/2000/svg">
<path d="M579.949 37.1204H593.541L562.266 72.9234L595 110.187H581.703L554.522 79.7915L546.047 89.7285V110.187H535.231V7.8938H546.047V77.0152L579.949 37.1204Z" fill="#1F1F1F"/>
<path d="M509.117 7.8938H519.783V110.187H509.117V7.8938Z" fill="#1F1F1F"/>
<path d="M493.527 89.2865C493.527 98.1521 494.211 105.118 495.577 110.184H484.616C483.642 106.286 483.055 101.854 482.861 96.8854C480.133 101.367 476.48 104.971 471.9 107.699C467.422 110.427 462.354 111.791 456.703 111.791C449.691 111.791 443.891 109.745 439.316 105.654C434.834 101.562 432.59 96.3495 432.59 90.0173C432.59 84.0743 434.441 79.3495 438.144 75.8421C441.846 72.3351 447.011 70.3866 453.636 69.9969L474.095 68.5354C477.211 68.3406 479.402 67.7073 480.671 66.6358C482.033 65.4665 482.716 63.6643 482.716 61.2288V60.9366C482.716 56.3577 480.913 52.5585 477.308 49.538C473.703 46.4207 469.322 44.8618 464.156 44.8618C452.269 44.8618 445.694 49.9766 444.429 60.2058H433.176C433.666 52.7043 436.685 46.7129 442.238 42.2314C447.888 37.7499 455.143 35.5092 464.011 35.5092C469.661 35.5092 474.677 36.6785 479.062 39.0166C483.545 41.2574 487.053 44.3747 489.583 48.3692C492.214 52.2658 493.527 56.6988 493.527 61.6673V89.2865ZM443.552 89.4324C443.552 93.3295 445.015 96.4469 447.937 98.785C450.956 101.026 454.949 102.146 459.921 102.146C464.302 102.146 468.198 101.123 471.609 99.0772C475.021 97.0317 477.7 94.255 479.648 90.7476C481.694 87.2406 482.716 83.2461 482.716 78.7647V76.5728L457.29 78.1802C448.131 78.8625 443.552 82.6132 443.552 89.4324Z" fill="#1F1F1F"/>
<path d="M443.763 15.2023V25.4315H415.269V110.189H404.453V25.4315H375.959V15.2023H443.763Z" fill="#1F1F1F"/>
<path d="M311.512 37.1189H323.349L346.438 98.0566L368.942 37.1189H380.926L352.284 110.185H340.154L311.512 37.1189Z" fill="#1F1F1F"/>
<path d="M243.645 73.3581C243.645 61.7647 246.714 52.6074 252.851 45.8852C258.989 39.0656 267.269 35.6555 277.693 35.6555C284.318 35.6555 290.164 37.2144 295.23 40.3318C300.393 43.4496 304.436 47.7359 307.359 53.1918C310.282 58.6474 311.743 64.8826 311.743 71.897V76.427H254.897C255.286 84.7077 257.479 90.9918 261.473 95.278C265.565 99.5647 271.264 101.708 278.571 101.708C284.513 101.708 289.238 100.393 292.745 97.7625C296.35 95.1322 298.591 91.5762 299.468 87.0947H310.866C309.307 94.8884 305.8 100.88 300.344 105.069C294.986 109.258 287.728 111.353 278.571 111.353C271.459 111.353 265.272 109.843 260.012 106.823C254.751 103.705 250.708 99.3214 247.882 93.6707C245.057 87.9229 243.645 81.1518 243.645 73.3581ZM277.693 44.8622C264.055 44.8622 256.504 52.4611 255.043 67.6588H300.198C299.614 60.7418 297.276 55.2378 293.184 51.1459C289.189 46.9566 284.026 44.8622 277.693 44.8622Z" fill="#1F1F1F"/>
<path d="M197.015 15.2023C205.296 15.2023 212.505 17.2482 218.643 21.3401C224.878 25.4315 229.7 31.1797 233.11 38.5837C236.52 45.9878 238.225 54.6096 238.225 64.4492C238.225 73.607 236.617 81.6444 233.402 88.5615C230.285 95.3811 225.852 100.69 220.104 104.49C214.356 108.29 207.634 110.189 199.938 110.189H161.651V15.2023H197.015ZM172.465 25.1393V100.252H198.476C207.537 100.252 214.551 97.1344 219.52 90.8996C224.586 84.6644 227.119 75.8478 227.119 64.4492C227.119 51.9793 224.342 42.3345 218.789 35.5148C213.333 28.5978 205.588 25.1393 195.554 25.1393H172.465Z" fill="#1F1F1F"/>
<path d="M33.9021 70.7235V28.1075C33.9021 27.6223 34.3045 27.2291 34.8008 27.2291H81.1032C85.0557 27.2291 88.2599 30.3606 88.2599 34.2233V86.6361C88.2599 90.4993 85.0557 93.6303 81.1032 93.6303H34.8008C34.3045 93.6303 33.9021 93.2372 33.9021 92.7519V84.9159C33.9021 84.4311 34.3045 84.0375 34.8008 84.0375H73.9503C75.9178 84.0375 77.5128 82.4786 77.5128 80.5556V40.7534C77.5128 38.8308 75.9178 37.2719 73.9503 37.2719H45.8595C45.3628 37.2719 44.9604 37.6651 44.9604 38.1503V66.9159C44.9604 67.2694 44.7435 67.5885 44.4099 67.7256L35.1494 71.5332C34.5571 71.7769 33.9021 71.3516 33.9021 70.7235Z" fill="#1F1F1F"/>
<path fill-rule="evenodd" clip-rule="evenodd" d="M0.906173 0C0.405488 0 0 0.396225 0 0.885451V122.719C0 123.208 0.405488 123.604 0.906173 123.604H60.7663C60.8848 123.604 61.0021 123.627 61.1118 123.671L104.032 140.97C104.629 141.211 105.284 140.782 105.284 140.152V124.49C105.284 124.001 105.69 123.604 106.19 123.604H118.095C118.595 123.604 119.001 123.208 119.001 122.719V0.885451C119.001 0.396225 118.595 0 118.095 0H0.906173ZM63.2291 113.226C63.1198 113.182 63.0022 113.159 62.884 113.159H11.5946C11.0944 113.159 10.6885 112.763 10.6885 112.274V11.3307C10.6885 10.8419 11.0944 10.4456 11.5946 10.4456H107.406C107.906 10.4456 108.312 10.8419 108.312 11.3307V112.274C108.312 112.763 107.906 113.159 107.406 113.159H95.5008C95.0006 113.159 94.5951 113.555 94.5951 114.044V124.545C94.5951 125.175 93.9402 125.604 93.3434 125.363L63.2291 113.226Z" fill="#1F1F1F"/>
</svg>
