<svg width="595" height="142" viewBox="0 0 595 142" fill="none" xmlns="http://www.w3.org/2000/svg">
<path d="M579.949 37.1204H593.541L562.266 72.9234L595 110.187H581.703L554.522 79.7915L546.047 89.7285V110.187H535.231V7.8938H546.047V77.0152L579.949 37.1204Z" fill="white"/>
<path d="M509.117 7.8938H519.783V110.187H509.117V7.8938Z" fill="white"/>
<path d="M493.528 89.2864C493.528 98.152 494.211 105.118 495.577 110.183H484.616C483.642 106.286 483.055 101.854 482.862 96.8853C480.133 101.367 476.48 104.971 471.9 107.699C467.422 110.427 462.354 111.791 456.703 111.791C449.691 111.791 443.891 109.745 439.316 105.653C434.834 101.562 432.59 96.3493 432.59 90.0172C432.59 84.0742 434.441 79.3494 438.144 75.842C441.846 72.335 447.011 70.3864 453.636 69.9968L474.095 68.5353C477.211 68.3405 479.402 67.7072 480.671 66.6357C482.033 65.4664 482.716 63.6642 482.716 61.2287V60.9365C482.716 56.3576 480.913 52.5583 477.308 49.5379C473.703 46.4205 469.322 44.8616 464.156 44.8616C452.269 44.8616 445.694 49.9765 444.429 60.2057H433.176C433.666 52.7042 436.685 46.7127 442.238 42.2313C447.888 37.7498 455.143 35.509 464.011 35.509C469.661 35.509 474.677 36.6783 479.062 39.0165C483.545 41.2572 487.053 44.3746 489.583 48.3691C492.214 52.2657 493.528 56.6987 493.528 61.6672V89.2864ZM443.552 89.4323C443.552 93.3294 445.015 96.4467 447.937 98.7849C450.956 101.026 454.949 102.146 459.921 102.146C464.302 102.146 468.198 101.123 471.609 99.0771C475.021 97.0316 477.7 94.2549 479.649 90.7475C481.694 87.2405 482.716 83.246 482.716 78.7645V76.5727L457.29 78.1801C448.131 78.8624 443.552 82.6131 443.552 89.4323Z" fill="white"/>
<path d="M443.763 15.202V25.4313H415.269V110.189H404.453V25.4313H375.959V15.202H443.763Z" fill="white"/>
<path d="M311.512 37.119H323.349L346.438 98.0567L368.942 37.119H380.926L352.284 110.186H340.154L311.512 37.119Z" fill="white"/>
<path d="M243.645 73.358C243.645 61.7646 246.714 52.6073 252.851 45.8851C258.989 39.0654 267.269 35.6554 277.693 35.6554C284.318 35.6554 290.164 37.2143 295.23 40.3317C300.393 43.4495 304.436 47.7357 307.359 53.1917C310.282 58.6472 311.743 64.8824 311.743 71.8969V76.4269H254.897C255.286 84.7076 257.479 90.9917 261.473 95.2779C265.565 99.5646 271.264 101.708 278.57 101.708C284.513 101.708 289.238 100.393 292.745 97.7624C296.35 95.132 298.591 91.5761 299.467 87.0946H310.866C309.307 94.8883 305.8 100.88 300.344 105.069C294.986 109.258 287.728 111.353 278.57 111.353C271.459 111.353 265.272 109.843 260.012 106.823C254.75 103.705 250.708 99.3213 247.882 93.6705C245.057 87.9228 243.645 81.1516 243.645 73.358ZM277.693 44.8621C264.055 44.8621 256.504 52.461 255.043 67.6587H300.198C299.614 60.7417 297.276 55.2376 293.184 51.1458C289.189 46.9565 284.026 44.8621 277.693 44.8621Z" fill="white"/>
<path d="M197.015 15.202C205.296 15.202 212.505 17.248 218.643 21.3398C224.878 25.4313 229.7 31.1794 233.11 38.5835C236.52 45.9876 238.225 54.6094 238.225 64.449C238.225 73.6068 236.617 81.6442 233.402 88.5612C230.285 95.3809 225.852 100.69 220.104 104.49C214.356 108.289 207.634 110.189 199.938 110.189H161.651V15.202H197.015ZM172.464 25.139V100.252H198.476C207.537 100.252 214.551 97.1341 219.52 90.8994C224.586 84.6642 227.118 75.8475 227.118 64.449C227.118 51.979 224.342 42.3342 218.789 35.5146C213.333 28.5976 205.588 25.139 195.554 25.139H172.464Z" fill="white"/>
<path d="M33.902 70.7236V28.1077C33.902 27.6224 34.3044 27.2292 34.8007 27.2292H81.1031C85.0557 27.2292 88.2599 30.3607 88.2599 34.2234V86.6363C88.2599 90.4994 85.0557 93.6304 81.1031 93.6304H34.8007C34.3044 93.6304 33.902 93.2373 33.902 92.752V84.916C33.902 84.4312 34.3044 84.0376 34.8007 84.0376H73.9502C75.9177 84.0376 77.5128 82.4787 77.5128 80.5557V40.7535C77.5128 38.8305 75.9177 37.272 73.9502 37.272H45.8594C45.3627 37.272 44.9603 37.6652 44.9603 38.1504V66.916C44.9603 67.2695 44.7435 67.5886 44.4098 67.7257L35.1494 71.5333C34.557 71.777 33.902 71.3517 33.902 70.7236Z" fill="white"/>
<path fill-rule="evenodd" clip-rule="evenodd" d="M0.906173 0C0.405488 0 0 0.396225 0 0.885451V122.719C0 123.208 0.405488 123.604 0.906173 123.604H60.7663C60.8848 123.604 61.0021 123.627 61.1118 123.671L104.032 140.97C104.629 141.211 105.284 140.782 105.284 140.152V124.49C105.284 124.001 105.69 123.604 106.19 123.604H118.095C118.595 123.604 119.001 123.208 119.001 122.719V0.885451C119.001 0.396225 118.595 0 118.095 0H0.906173ZM63.2291 113.226C63.1198 113.182 63.0022 113.159 62.884 113.159H11.5947C11.0944 113.159 10.6885 112.763 10.6885 112.274V11.3307C10.6885 10.8419 11.0944 10.4456 11.5947 10.4456H107.406C107.906 10.4456 108.312 10.8419 108.312 11.3307V112.274C108.312 112.763 107.906 113.159 107.406 113.159H95.5009C95.0006 113.159 94.5951 113.555 94.5951 114.044V124.545C94.5951 125.175 93.9402 125.604 93.3434 125.363L63.2291 113.226Z" fill="white"/>
</svg>
